<?xml version="1.0" standalone="no"?>
<!DOCTYPE svg PUBLIC "-//W3C//DTD SVG 20010904//EN"
 "http://www.w3.org/TR/2001/REC-SVG-20010904/DTD/svg10.dtd">
<svg version="1.0" xmlns="http://www.w3.org/2000/svg"
 width="1311.000000pt" height="242.000000pt" viewBox="0 0 1311.000000 242.000000"
 preserveAspectRatio="xMidYMid meet">

<g transform="translate(0.000000,242.000000) scale(0.100000,-0.100000)"
fill="#000000" stroke="none">
<path d="M995 2166 c-84 -47 -162 -90 -215 -119 -30 -16 -75 -41 -100 -55 -25
-13 -74 -40 -110 -60 -117 -63 -169 -101 -195 -141 l-25 -41 0 -425 c0 -453 0
-455 49 -505 23 -25 103 -73 261 -156 19 -11 37 -21 40 -24 6 -6 45 -27 188
-101 101 -53 120 -59 173 -59 35 0 73 7 90 16 40 20 51 15 68 -32 22 -62 83
-111 236 -190 168 -86 165 -87 538 120 26 14 68 38 95 52 26 15 76 42 112 61
71 38 134 92 156 135 11 22 14 104 14 448 l0 420 -24 39 c-23 36 -63 71 -111
97 -11 6 -51 28 -90 49 -38 21 -108 58 -155 83 -47 25 -89 48 -95 52 -5 4 -51
29 -102 54 -107 54 -174 61 -243 26 -49 -25 -50 -25 -50 5 0 34 -39 94 -82
127 -19 14 -86 54 -150 87 -104 55 -120 61 -174 60 -41 0 -71 -7 -99 -23z
m173 -157 c31 -18 75 -42 98 -54 69 -38 84 -49 84 -62 0 -11 -101 -76 -222
-142 -56 -30 -76 -41 -258 -142 l-85 -47 -3 -236 -2 -236 37 -23 c21 -13 86
-49 145 -81 l108 -57 87 47 c49 26 102 55 118 64 247 138 347 190 355 185 6
-4 10 -66 10 -149 l0 -142 -122 -69 c-173 -97 -247 -137 -393 -214 -64 -34
-59 -35 -260 74 -165 89 -342 189 -353 197 -9 8 -12 101 -12 403 l0 392 223
121 c122 67 254 140 292 161 39 22 76 40 83 40 7 1 39 -13 70 -30z m762 -372
c135 -73 255 -140 268 -148 l22 -14 0 -391 0 -391 -222 -121 c-123 -67 -260
-140 -305 -164 l-82 -43 -73 39 c-100 53 -178 104 -178 115 0 13 7 17 380 222
l195 107 3 233 2 234 -52 31 c-29 17 -96 54 -148 82 l-95 51 -60 -32 c-76 -41
-209 -114 -255 -140 -157 -88 -230 -127 -238 -127 -23 0 -30 281 -8 299 12 10
41 26 161 91 44 23 85 46 90 50 12 9 97 56 210 117 58 32 88 42 110 39 17 -2
140 -65 275 -139z"/>
<path d="M9540 1388 c0 -473 1 -493 20 -533 28 -57 73 -77 165 -73 l70 3 0 50
0 50 -41 -3 c-28 -2 -47 2 -65 16 l-24 20 -3 481 -3 481 -59 0 -60 0 0 -492z"/>
<path d="M10322 1376 c3 -492 4 -505 24 -533 34 -46 79 -64 159 -61 l70 3 3
52 3 51 -40 -5 c-28 -4 -48 -1 -66 11 l-25 16 0 485 0 485 -65 0 -66 0 3 -504z"/>
<path d="M4172 1828 c-18 -18 -15 -94 4 -112 25 -25 99 -21 118 6 18 26 21 71
6 99 -9 15 -22 19 -63 19 -29 0 -58 -5 -65 -12z"/>
<path d="M3175 1783 c-75 -17 -117 -38 -153 -77 -50 -54 -66 -102 -66 -191 0
-86 15 -132 57 -175 40 -41 87 -61 219 -96 189 -49 228 -82 228 -194 0 -69
-24 -118 -70 -145 -64 -37 -328 -31 -432 10 -16 6 -18 0 -18 -53 0 -34 4 -63
10 -67 5 -3 62 -13 127 -22 98 -13 135 -14 220 -5 119 13 177 37 227 93 69 75
85 232 36 334 -39 80 -77 99 -358 181 -29 8 -68 28 -85 44 -31 27 -32 32 -32
103 0 81 12 104 65 132 61 31 234 26 368 -11 21 -6 22 -4 22 49 0 66 -4 69
-101 86 -64 11 -223 13 -264 4z"/>
<path d="M6534 1763 c3 -10 55 -232 116 -493 62 -261 114 -478 116 -482 3 -5
41 -8 84 -8 l79 0 10 38 c117 423 197 702 201 702 3 0 50 -165 106 -368 l101
-367 83 0 83 0 117 495 117 495 -60 3 c-33 2 -63 -1 -67 -5 -4 -4 -47 -190
-95 -413 -48 -223 -91 -409 -95 -413 -4 -4 -28 68 -54 160 -26 92 -71 254
-100 358 l-53 190 -81 3 c-45 2 -82 0 -82 -3 0 -14 -193 -710 -199 -717 -3 -4
-48 184 -100 418 l-94 424 -69 0 c-61 0 -69 -2 -64 -17z"/>
<path d="M12310 1660 l0 -90 -55 0 -55 0 0 -55 0 -55 55 0 55 0 0 -239 c0
-318 11 -369 87 -414 35 -20 143 -33 197 -23 36 7 36 7 36 56 l0 49 -76 3
c-114 4 -111 -5 -118 310 l-6 257 97 3 98 3 3 53 3 52 -100 0 -101 0 0 90 0
90 -60 0 -60 0 0 -90z"/>
<path d="M8488 1573 l-68 -4 0 -54 0 -53 119 5 c108 5 123 4 164 -16 55 -27
77 -67 77 -144 l0 -55 -172 -4 c-148 -4 -181 -7 -229 -26 -97 -38 -139 -104
-139 -217 0 -104 34 -165 115 -208 33 -18 57 -22 145 -22 93 0 112 3 160 26
30 15 69 40 85 57 37 39 45 40 45 3 0 -16 4 -41 10 -56 9 -24 14 -26 57 -23
l48 3 -1 310 c0 338 -2 350 -59 408 -56 55 -185 80 -357 70z m292 -489 c0 -81
-20 -119 -86 -162 -88 -59 -251 -65 -299 -11 -41 44 -35 152 10 199 35 36 38
37 223 39 l152 1 0 -66z"/>
<path d="M11301 1570 c-107 -23 -172 -77 -212 -177 -21 -52 -23 -75 -24 -213
0 -184 13 -233 81 -309 51 -57 97 -78 205 -92 84 -12 213 0 286 25 38 13 38
14 41 71 3 49 1 57 -13 51 -89 -34 -225 -51 -300 -37 -109 20 -161 76 -172
185 l-6 53 69 6 c38 4 152 11 254 17 102 6 191 13 198 15 8 3 12 27 12 73 0
161 -44 256 -142 305 -47 25 -71 30 -145 33 -48 2 -108 -1 -132 -6z m215 -116
c40 -19 70 -75 79 -145 l7 -56 -169 -12 c-92 -6 -185 -14 -205 -17 l-38 -6 0
39 c0 107 58 195 137 208 21 4 43 8 48 11 19 7 110 -7 141 -22z"/>
<path d="M5163 1554 c-23 -9 -58 -33 -77 -55 l-36 -39 0 50 0 50 -60 0 -60 0
0 -390 0 -390 60 0 60 0 0 270 c0 247 2 274 19 308 37 72 89 102 179 102 60 0
107 -23 129 -62 16 -29 18 -65 21 -325 l3 -293 63 0 63 0 -5 268 c-4 254 -4
269 16 307 35 70 95 105 179 105 66 0 114 -26 138 -75 18 -37 20 -64 23 -322
l4 -283 59 0 59 0 0 295 c0 243 -3 303 -16 342 -33 98 -119 153 -240 153 -103
0 -194 -38 -224 -95 l-13 -25 -36 41 c-49 58 -99 79 -191 78 -41 0 -94 -7
-117 -15z"/>
<path d="M4177 1554 c-4 -4 -7 -180 -7 -391 l0 -383 65 0 65 0 -2 388 -3 387
-55 3 c-31 2 -59 0 -63 -4z"/>
</g>
</svg>
