<?xml version="1.0" standalone="no"?>
<!DOCTYPE svg PUBLIC "-//W3C//DTD SVG 20010904//EN"
 "http://www.w3.org/TR/2001/REC-SVG-20010904/DTD/svg10.dtd">
<svg version="1.0" xmlns="http://www.w3.org/2000/svg"
 width="38.000000pt" height="38.000000pt" viewBox="0 0 38.000000 38.000000"
 preserveAspectRatio="xMidYMid meet">

<g transform="translate(0.000000,38.000000) scale(0.100000,-0.100000)"
fill="#000000" stroke="none">
<path d="M0 190 l0 -190 190 0 190 0 0 190 0 190 -190 0 -190 0 0 -190z m185
90 c3 -5 -10 -17 -29 -27 -30 -14 -36 -22 -36 -49 0 -41 26 -52 69 -30 38 20
41 20 41 -2 0 -12 -14 -25 -38 -36 -36 -17 -40 -16 -75 0 -36 17 -37 20 -37
69 0 48 2 52 33 68 37 18 63 21 72 7z m80 -37 c33 -16 35 -19 35 -67 0 -49 -2
-52 -40 -72 -31 -18 -42 -19 -55 -10 -15 10 -12 14 19 31 30 16 36 25 36 52 0
39 -29 52 -65 29 -31 -21 -35 -20 -35 4 0 11 12 26 28 34 34 19 35 19 77 -1z"/>
</g>
</svg>
