<svg xmlns="http://www.w3.org/2000/svg" viewBox="0 0 80 78" width="80" height="78">
	<style>
		tspan { white-space:pre }
		.shp0 { fill: #ffffff } 
		.shp1 { fill: none;stroke: #38393a;stroke-width: 3 } 
		.shp2 { fill: #000000 } 
		.shp3 { fill: #38393a } 
	</style>
	<g id="Layer">
		<path id="Layer" class="shp0" d="M34 68C15.2 68 0 52.8 0 34C0 15.2 15.2 0 34 0C52.8 0 68 15.2 68 34C68 52.8 52.8 68 34 68Z" />
		<path id="Layer" class="shp1" d="M34 66.5C16.03 66.5 1.5 51.97 1.5 34C1.5 16.03 16.03 1.5 34 1.5C51.97 1.5 66.5 16.03 66.5 34C66.5 51.97 51.97 66.5 34 66.5Z" />
		<path id="Layer" fill-rule="evenodd" class="shp2" d="M33.03 16.16C35.53 17.56 36.81 18.76 37.06 19.96C37.2 20.78 37.23 20.78 38.01 20.37C39.62 19.46 40.59 19.76 45.91 22.74C49.11 24.53 51.3 25.97 51.97 26.7L53 27.81L53 44.83L52.11 45.82C51.58 46.41 48.88 48.17 45.77 49.92C39.42 53.56 39.15 53.61 36.14 51.94C35.08 51.36 33.8 50.57 33.3 50.16C32.3 49.37 31.5 47.96 31.8 47.61C31.91 47.49 31.69 47.49 31.3 47.61C30.91 47.76 29.91 47.87 29.08 47.87C27.63 47.9 27.21 47.73 22.29 44.83C18.45 42.6 16.89 41.52 16.5 40.87C16.06 40.08 16 39.23 16 31.59L16 23.21L16.7 22.31C17.11 21.78 19.73 20.11 23.04 18.21C29.66 14.37 29.72 14.37 33.03 16.16ZM29.77 17.88C29.63 17.88 27.07 19.32 24.12 21.02L18.78 24.15L18.84 31.77L18.92 39.38L23.87 42.28C27.43 44.39 28.99 45.12 29.44 45C29.77 44.92 32.19 43.6 34.78 42.1L39.51 39.32L39.59 36.36L39.67 33.38L39.03 33.73C38.67 33.9 36.34 35.25 33.8 36.71L29.24 39.38L26.57 37.89L23.93 36.39L23.85 31.74L23.79 27.11L25.79 26C30.27 23.51 34.36 20.93 34.28 20.67C34.22 20.52 33.25 19.82 32.11 19.11C30.99 18.44 29.94 17.88 29.77 17.88ZM39.76 22.86C39.45 22.89 38.78 23.24 33.61 26.29L29.35 28.78L29.35 31.68C29.35 33.26 29.41 34.58 29.49 34.58C29.58 34.58 31.88 33.26 34.67 31.62C38.39 29.42 39.84 28.72 40.18 28.9C40.45 29.04 41.68 29.74 42.93 30.45L45.21 31.77L45.21 40.87L41.37 43.07C39.28 44.24 36.84 45.68 35.92 46.23L34.31 47.23L35.45 48.02C36.09 48.49 37.2 49.13 37.95 49.51L39.31 50.16L50.22 43.89L50.22 28.75L47.69 27.26C46.3 26.43 43.99 25.09 42.6 24.3C41.18 23.51 39.9 22.86 39.76 22.86Z" />
		<g id="Layer">
			<path id="Layer" class="shp0" d="M63 78C53.6 78 46 70.4 46 61C46 51.6 53.6 44 63 44C72.4 44 80 51.6 80 61C80 70.4 72.4 78 63 78Z" />
			<path id="Layer" class="shp1" d="M63 76.5C54.43 76.5 47.5 69.57 47.5 61C47.5 52.43 54.43 45.5 63 45.5C71.57 45.5 78.5 52.43 78.5 61C78.5 69.57 71.57 76.5 63 76.5Z" />
			<path id="Layer" fill-rule="evenodd" class="shp3" d="M65.08 59.42L71.5 59.42L71.5 63.58L65.08 63.58L65.08 70L60.92 70L60.92 63.58L54.5 63.58L54.5 59.42L60.92 59.42L60.92 53L65.08 53L65.08 59.42Z" />
		</g>
	</g>
</svg>