<?xml version="1.0" standalone="no"?>
<!DOCTYPE svg PUBLIC "-//W3C//DTD SVG 20010904//EN"
 "http://www.w3.org/TR/2001/REC-SVG-20010904/DTD/svg10.dtd">
<svg version="1.0" xmlns="http://www.w3.org/2000/svg"
 width="200.000000pt" height="200.000000pt" viewBox="0 0 200.000000 200.000000"
 preserveAspectRatio="xMidYMid meet">

<g transform="translate(0.000000,200.000000) scale(0.100000,-0.100000)"
fill="#000000" stroke="none">
<path d="M593 1539 c-119 -65 -213 -122 -228 -140 l-25 -31 0 -286 c0 -261 2
-290 18 -317 14 -22 70 -59 208 -135 177 -99 192 -105 244 -104 30 0 66 4 80
9 14 4 22 4 18 0 -11 -12 18 -60 54 -87 18 -14 64 -41 102 -61 108 -57 118
-55 346 69 112 60 209 120 228 140 l32 34 0 290 0 291 -37 38 c-24 25 -103 74
-218 135 -191 102 -226 112 -284 81 -28 -14 -29 -14 -34 14 -9 41 -55 82 -145
130 -119 61 -121 61 -359 -70z m326 -31 c41 -24 76 -48 78 -53 3 -9 -144 -97
-305 -182 l-72 -38 2 -158 3 -159 95 -51 96 -51 164 91 c91 50 175 96 188 102
l23 12 -3 -102 -3 -101 -170 -95 c-93 -51 -180 -96 -192 -99 -16 -4 -72 21
-200 93 l-178 99 -3 260 -2 260 192 107 c106 58 198 107 203 107 6 0 44 -19
84 -42z m377 -177 c50 -27 133 -73 183 -101 l91 -51 0 -259 0 -258 -196 -107
-196 -107 -49 22 c-27 13 -67 35 -90 51 l-41 27 58 34 c33 19 121 68 196 108
l138 75 0 156 0 155 -82 45 c-45 24 -89 48 -99 53 -12 6 -64 -18 -198 -93
-100 -56 -183 -101 -186 -101 -3 0 -5 45 -5 99 l0 99 153 85 c186 104 210 116
221 117 5 0 51 -22 102 -49z"/>
</g>
</svg>
